<?xml version="1.0" encoding="UTF-8"?>
<svg width="593px" height="417px" viewBox="0 0 593 417" version="1.1" xmlns="http://www.w3.org/2000/svg" xmlns:xlink="http://www.w3.org/1999/xlink">
    <!-- Generator: Sketch 44.1 (41455) - http://www.bohemiancoding.com/sketch -->
    <title>25 years</title>
    <desc>Created with Sketch.</desc>
    <defs></defs>
    <g id="Page-1" stroke="none" stroke-width="1" fill="none" fill-rule="evenodd">
        <g id="25-years">
            <g id="winner" transform="translate(40.000000, 37.000000)">
                <g id="Group" transform="translate(0.000000, 9.000000)" fill-rule="nonzero" fill="#00B5B3">
                    <path d="M36.782,37.419 C48.934,24.161 61.668,12.231 75.689,1.155 C77.338,-0.147 79.712,1.412 79.16,3.439 C71.301,32.324 57.57,60.87 36.403,82.091 C35.452,67.235 35.438,52.255 36.782,37.419 Z" id="Shape"></path>
                    <path d="M36.404,82.102 C24.183,67.354 13.681,52.106 4.219,35.644 C3.137,33.762 0.259,34.433 0.149,36.602 C-1.558,70.323 11.326,109.779 42.716,125.693 C39.588,111.353 37.334,96.76 36.404,82.102 Z" id="Shape"></path>
                    <path d="M42.714,125.682 C50.405,109.857 59.014,95.134 69.105,80.863 C70.302,79.17 72.987,79.946 73.074,82.018 C74.303,111.147 69.305,141.939 55.348,167.509 C50.174,153.899 45.81,139.919 42.714,125.682 Z" id="Shape"></path>
                    <path d="M55.351,167.519 C39.482,157.32 24.986,146.169 11.081,133.643 C9.477,132.198 6.961,133.707 7.504,135.796 C15.881,168.005 39.837,201.058 73.943,206.896 C66.853,194.236 60.502,181.095 55.351,167.519 Z" id="Shape"></path>
                    <path d="M73.937,206.887 C76.717,189.623 80.693,173.154 86.228,156.689 C86.886,154.731 89.667,154.693 90.357,156.641 C100.037,183.969 103.958,214.8 98.118,243.134 C89.24,231.644 81.027,219.569 73.937,206.887 Z" id="Shape"></path>
                    <path d="M98.124,243.143 C80.035,238.018 62.945,231.609 46.02,223.753 C44.065,222.845 42.105,225.021 43.232,226.858 C60.634,255.237 93.214,279.807 127.529,275.573 C116.995,265.481 107.041,254.7 98.124,243.143 Z" id="Shape"></path>
                    <path d="M127.521,275.566 C125.053,258.172 124.004,241.207 124.489,223.768 C124.546,221.701 127.198,220.854 128.426,222.518 C145.758,246.016 158.688,274.56 161.782,303.499 C149.73,295.029 138.158,285.771 127.521,275.566 Z" id="Shape"></path>
                    <path d="M475.218,37.419 C463.066,24.161 450.332,12.231 436.311,1.155 C434.662,-0.147 432.288,1.412 432.84,3.439 C440.699,32.324 454.43,60.87 475.597,82.091 C476.548,67.235 476.562,52.255 475.218,37.419 Z" id="Shape"></path>
                    <path d="M475.596,82.102 C487.817,67.354 498.319,52.106 507.781,35.644 C508.863,33.762 511.741,34.433 511.851,36.602 C513.558,70.323 500.674,109.779 469.284,125.693 C472.412,111.353 474.666,96.76 475.596,82.102 Z" id="Shape"></path>
                    <path d="M469.286,125.682 C461.595,109.857 452.986,95.134 442.895,80.863 C441.698,79.17 439.013,79.946 438.926,82.018 C437.697,111.147 442.695,141.939 456.652,167.509 C461.826,153.899 466.19,139.919 469.286,125.682 Z" id="Shape"></path>
                    <path d="M456.649,167.519 C472.518,157.32 487.014,146.169 500.919,133.643 C502.523,132.198 505.039,133.707 504.496,135.796 C496.119,168.005 472.163,201.058 438.057,206.896 C445.147,194.236 451.498,181.095 456.649,167.519 Z" id="Shape"></path>
                    <path d="M438.063,206.887 C435.283,189.623 431.307,173.154 425.772,156.689 C425.114,154.731 422.333,154.693 421.643,156.641 C411.963,183.969 408.042,214.8 413.882,243.134 C422.76,231.644 430.973,219.569 438.063,206.887 Z" id="Shape"></path>
                    <path d="M413.876,243.143 C431.965,238.018 449.055,231.609 465.98,223.753 C467.935,222.845 469.895,225.021 468.768,226.858 C451.366,255.237 418.786,279.807 384.471,275.573 C395.005,265.481 404.959,254.7 413.876,243.143 Z" id="Shape"></path>
                    <path d="M384.479,275.566 C386.947,258.172 387.996,241.207 387.511,223.768 C387.454,221.701 384.802,220.854 383.574,222.518 C366.242,246.016 353.312,274.56 350.218,303.499 C362.27,295.029 373.842,285.771 384.479,275.566 Z" id="Shape"></path>
                </g>
                <path d="M343.164,344.569 L169.524,344.569 C167.007,344.569 165.26,342.062 166.132,339.701 L179.027,304.761 C179.551,303.34 180.905,302.397 182.419,302.397 L330.269,302.397 C331.783,302.397 333.137,303.34 333.661,304.761 L346.556,339.701 C347.428,342.062 345.681,344.569 343.164,344.569 Z" id="Shape" fill="#FFBF64" fill-rule="nonzero"></path>
                <text id="45" stroke="#FFBE64" stroke-width="3" font-family="Muli-SemiBold, Muli" font-size="200" font-weight="500" letter-spacing="0.601851821" fill="#FFBF64">
                    <tspan x="139" y="201">45</tspan>
                </text>
            </g>
        </g>
    </g>
</svg>