<?xml version="1.0" encoding="UTF-8"?>
<svg width="593px" height="417px" viewBox="0 0 593 417" version="1.1" xmlns="http://www.w3.org/2000/svg" xmlns:xlink="http://www.w3.org/1999/xlink">
    <!-- Generator: Sketch 44.1 (41455) - http://www.bohemiancoding.com/sketch -->
    <title>Approved my med asso</title>
    <desc>Created with Sketch.</desc>
    <defs></defs>
    <g id="Page-1" stroke="none" stroke-width="1" fill="none" fill-rule="evenodd">
        <g id="Approved-my-med-asso">
            <g id="medal" transform="translate(168.000000, 25.000000)">
                <path d="M56.3224395,204.89685 L0,319.02 L60.331576,313.453 L89.5319447,366.482 L155.969917,241.462 C112.703388,231.569894 84.924692,223.002675 72.6338291,215.760345 C60.3429662,208.518015 54.9058363,204.89685 56.3224395,204.89685 Z" id="Shape" fill="#00B5B3" fill-rule="nonzero"></path>
                <g id="Group" transform="translate(97.691244, 206.218750)" fill-rule="nonzero" fill="#00B5B3">
                    <path d="M99.5376928,0.834218291 L158.969917,113.02 L98.638341,107.453 L69.4379724,160.482 L0.543618203,20.4963763 C19.8348673,23.3877684 33.1059003,24.4012702 40.3567171,23.5368818 C51.2329424,22.2402992 66.1734978,18.9959425 73.8911579,15.4408289 C87.5732126,9.13823752 96.1220576,4.26936731 99.5376928,0.834218291 Z" id="Shape"></path>
                </g>
                <path d="M127.928664,194.0095 C84.2327373,194.0095 48.6881843,158.4985 48.6881843,114.865 C48.6881843,71.2315 84.2327373,35.73 127.928664,35.73 C171.62459,35.73 207.169143,71.241 207.169143,114.8745 C207.169143,158.508 171.62459,194.0095 127.928664,194.0095 Z M183.247668,97.347 L144.706986,97.347 L132.789051,60.734 C131.257696,56.0315 124.59012,56.0315 123.058765,60.734 L111.150341,97.347 L72.609659,97.347 C67.6541567,97.347 65.5901567,103.6835 69.6040184,106.5905 L100.782783,129.2195 L88.8743594,165.8325 C87.3430046,170.535 92.7360369,174.449 96.7498986,171.542 L127.928664,148.913 L159.107429,171.542 C163.12129,174.449 168.514323,170.535 166.982968,165.8325 L155.074544,129.2195 L186.253309,106.5905 C190.257659,103.6835 188.203171,97.347 183.247668,97.347 Z" id="Combined-Shape" fill="#FFBF64" fill-rule="nonzero"></path>
                <circle id="Oval" stroke="#FFBE64" stroke-width="12" cx="128" cy="115" r="115"></circle>
            </g>
        </g>
    </g>
</svg>