<?xml version="1.0" encoding="UTF-8"?>
<svg width="593px" height="417px" viewBox="0 0 593 417" version="1.1" xmlns="http://www.w3.org/2000/svg" xmlns:xlink="http://www.w3.org/1999/xlink">
    <!-- Generator: Sketch 44.1 (41455) - http://www.bohemiancoding.com/sketch -->
    <title>freemodels</title>
    <desc>Created with Sketch.</desc>
    <defs></defs>
    <g id="Page-1" stroke="none" stroke-width="1" fill="none" fill-rule="evenodd">
        <g id="freemodels">
            <g id="piggy-bank" transform="translate(57.993372, 72.419151)">
                <path d="M462.256044,126.357681 L444.134242,120.549834 C439.797305,119.160279 436.429431,115.734526 435.063547,111.388652 C414.209126,45.0427126 336.771011,14.5738806 258.823671,14.5738806 C167.630495,14.5738806 93.7041666,56.2665024 93.7041666,148.338383 C93.7041666,201.403037 119.718121,238.570019 159.909505,260.035283 C160.898153,260.563501 161.601532,261.501515 161.813567,262.602254 L170.817841,309.39474 C171.651507,313.802808 175.502209,316.99427 179.986463,316.99427 L210.392704,316.99427 C214.876958,316.99427 218.726809,313.802808 219.561326,309.39474 L224.483276,283.37913 C224.846036,281.459652 226.716113,279.895452 228.573264,280.39214 C239.741837,283.37913 250.315428,288.147386 262.688471,288.147386 C275.061514,288.147386 285.750554,282.015986 299.89726,279.046035 C301.844833,278.637162 303.74115,280.048798 304.114128,282.015986 L309.294097,309.39474 C310.127763,313.802808 313.978465,316.99427 318.462719,316.99427 L348.86896,316.99427 C353.353215,316.99427 357.203065,313.802808 358.037583,309.39474 L367.39014,259.851259 C367.601324,258.732628 368.32003,257.779279 369.329967,257.254469 C393.198019,244.838779 412.943725,227.757729 425.537275,205.98235 C427.215677,203.080556 429.869102,200.868855 433.060705,199.846496 L462.258599,190.489362 C469.660258,188.117491 474.682691,181.231908 474.682691,173.456022 L474.682691,143.391021 C474.680137,135.615135 469.658555,128.729552 462.256044,126.357681 Z" id="Shape" stroke="#FFBF64" stroke-width="12" fill-rule="nonzero"></path>
                <g id="Group" transform="translate(327.252060, 0.039354)" fill-rule="nonzero" fill="#FFBF64">
                    <path d="M2.40000664,30.7729836 C3.32478828,26.3811029 6.36141009,22.72958 10.4403272,20.8612203 C26.1122251,13.6842653 66.0413326,-3.5859216 76.3058977,1.79338678 C89.1600218,8.52987575 82.4268281,81.2536266 62.8395104,92.3538814 C43.9198066,103.075864 -10.9786713,94.298918 2.40000664,30.7729836 Z" id="Shape"></path>
                    <path d="M61.9155803,146.635141 C50.3072716,146.635141 40.8627476,137.185995 40.8627476,125.572005 C40.8627476,122.014198 43.7452392,119.130296 47.3013055,119.130296 C50.8573719,119.130296 53.7398635,122.014198 53.7398635,125.572005 C53.7398635,130.082309 57.4074827,133.750871 61.9147287,133.750871 C66.4228263,133.750871 70.0904455,130.082309 70.0904455,125.572005 C70.0904455,122.014198 72.9729371,119.130296 76.5290034,119.130296 C80.0850698,119.130296 82.9675614,122.014198 82.9675614,125.572005 C82.9692645,137.185995 73.5247405,146.635141 61.9155803,146.635141 Z" id="Shape"></path>
                </g>
                <path d="M94.3559951,141.534449 C60.3739136,145.665789 41.6529286,140.341816 38.1930399,125.56253 C33.003207,103.393602 59.4167938,87.9144071 74.845688,107.822524 C90.2745822,127.730642 45.2472745,165.298672 0.617396132,166.930062" id="Path-2" stroke="#FFBF64" stroke-width="12"></path>
            </g>
            <path d="M307.10713,132.382691 C308.957322,132.382691 311.411205,133.572961 313.248479,133.379014 C315.085753,133.185066 330.932776,140.847346 338.880956,135.644646 C355.268088,124.917997 367.088967,106.475809 367.088967,85.5248046 C367.088967,52.3977504 340.234184,25.542967 307.10713,25.542967 C273.980075,25.542967 247.125292,52.3977504 247.125292,85.5248046 C247.125292,107.016625 259.564321,125.868435 276.611327,136.459805 C279.915304,138.512579 284.826815,134.147498 288.41997,133.379014 C292.013125,132.610529 300.245829,132.382691 307.10713,132.382691 Z" id="Oval-3" fill="#00B5B3"></path>
            <path d="M247.125292,145.144922 C282.776974,127.490823 323.116061,126.913656 368.142553,143.413422" id="Path-3" stroke="#FFBF64" stroke-width="8" stroke-linecap="round"></path>
            <text id="$" font-family="Muli-Light, Muli" font-size="72" font-weight="300" letter-spacing="0.216666654" fill="#FFBF64">
                <tspan x="283.870922" y="106.188998">$</tspan>
            </text>
        </g>
    </g>
</svg>